<?xml version="1.0" encoding="UTF-8"?>
<svg width="955px" height="699px" viewBox="0 0 955 699" version="1.1" xmlns="http://www.w3.org/2000/svg" xmlns:xlink="http://www.w3.org/1999/xlink">
    <!-- Generator: Sketch 45 (43475) - http://www.bohemiancoding.com/sketch -->
    <title>youngs</title>
    <desc>Created with Sketch.</desc>
    <defs>
        <filter x="-0.2%" y="-0.2%" width="101.0%" height="101.0%" filterUnits="objectBoundingBox" id="filter-1">
            <feOffset dx="4" dy="4" in="SourceAlpha" result="shadowOffsetOuter1"></feOffset>
            <feGaussianBlur stdDeviation="0.5" in="shadowOffsetOuter1" result="shadowBlurOuter1"></feGaussianBlur>
            <feColorMatrix values="0 0 0 0 0   0 0 0 0 0   0 0 0 0 0  0 0 0 0.200605752 0" type="matrix" in="shadowBlurOuter1" result="shadowMatrixOuter1"></feColorMatrix>
            <feMerge>
                <feMergeNode in="shadowMatrixOuter1"></feMergeNode>
                <feMergeNode in="SourceGraphic"></feMergeNode>
            </feMerge>
        </filter>
        <polygon id="path-2" points="0 1000 1000 1000 1000 0 0 0"></polygon>
        <polygon id="path-4" points="0.04875 121.74375 941.965 121.74375 941.965 0.3175 0.04875 0.3175"></polygon>
    </defs>
    <g id="Welcome" stroke="none" stroke-width="1" fill="none" fill-rule="evenodd">
        <g id="youngs" transform="translate(-25.000000, -154.000000)">
            <g id="g3363" filter="url(#filter-1)" transform="translate(502.500000, 504.625000) scale(-1, 1) rotate(-180.000000) translate(-502.500000, -504.625000) translate(0.000000, 0.250000)">
                <polygon id="path3365" points="6.06375 0 1005 0 1005 998.26875 6.06375 998.26875"></polygon>
                <g id="g3501" transform="translate(0.850622, 8.298755)">
                    <g id="g3503-Clipped">
                        <mask id="mask-3" fill="white">
                            <use xlink:href="#path-2"></use>
                        </mask>
                        <g id="path3507"></g>
                        <g id="g3503" mask="url(#mask-3)">
                            <g transform="translate(25.000000, 152.500000)">
                                <g id="g3509">
                                    <g id="g3517">
                                        <g id="g3519-Clipped">
                                            <mask id="mask-5" fill="white">
                                                <use xlink:href="#path-4"></use>
                                            </mask>
                                            <g id="path3515"></g>
                                            <g id="g3519" opacity="0.69999701" mask="url(#mask-5)">
                                                <g transform="translate(-1.250000, -1.250000)" id="g3521">
                                                    <g transform="translate(0.714750, 1.030500)">
                                                        <path d="M942.5,61.25 C942.5,27.71875 731.645,0.5375 471.5425,0.5375 C211.43875,0.5375 0.58375,27.71875 0.58375,61.25 C0.58375,94.78125 211.43875,121.9625 471.5425,121.9625 C731.645,121.9625 942.5,94.78125 942.5,61.25" id="path3523" fill="#038389" fill-rule="nonzero"></path>
                                                    </g>
                                                </g>
                                            </g>
                                        </g>
                                    </g>
                                </g>
                                <g id="g3525" transform="translate(166.457250, 54.331250)">
                                    <path d="M28.75,36.25 C28.75,36.25 36.565,11.935 37,5.85625 C37.43375,-0.2225 10.08,-0.65625 7.475,1.08 C4.87,2.8175 -1.53125,31.91125 1.0175,32.77875 C3.5675,33.645 27.83625,39.13875 28.75,36.25" id="path3527" fill="#FFFFFF" fill-rule="nonzero"></path>
                                </g>
                                <g id="g3529" transform="translate(147.524125, 80.476125)">
                                    <path d="M22.5,7.5 C22.5,7.5 32.0525,-1.6175 39.8675,0.9875 C47.6825,3.5925 52.45875,7.5 52.45875,7.5 C52.45875,7.5 39.8675,82.18125 37.48,114.745 C35.09125,147.31 42.5,211.945 40.30125,224.145 C38.10375,236.34625 0.35625,199.84625 0.35625,199.84625 C0.35625,199.84625 13.3825,32.6825 22.5,7.5" id="path3531" fill="#006C9B" fill-rule="nonzero"></path>
                                </g>
                                <g id="g3533" transform="translate(110.051375, 46.186875)">
                                    <path d="M40,38.75 C40,38.75 29.145,21.3825 26.54,20.08 C23.935,18.7775 6.1325,21.3825 4.39625,20.08 C2.66,18.7775 0.48875,7.9225 1.3575,6.18625 C2.225,4.44875 30.01375,1.41 37.82875,0.975 C45.645,0.54125 63.0125,2.2775 67.78875,5.3175 C68.65625,7.48875 63.44625,35.71125 61.71,38.75 C59.9725,41.78875 41.3025,44.395 40,38.75" id="path3535" fill="#FFFFFF" fill-rule="nonzero"></path>
                                </g>
                                <g id="g3537" transform="translate(114.447750, 76.360500)">
                                    <path d="M0,240 C0,240 1.73625,130.58375 6.9475,108.44 C12.1575,86.29625 26.2725,30.28625 27.465,25.51 C27.465,25.51 27.14125,20.3 27.465,17.69375 C27.78875,15.08875 31.69625,5.1025 34.30125,2.93125 C36.90625,0.76125 56.445,-1.84375 61.06375,6.22125 C61.06375,6.22125 54.7075,41.575 52.1025,55.9025 C49.4975,70.23125 37.775,169.2275 41.2475,200.9225 C41.2475,200.9225 65.12875,216.55375 71.64125,221.76375 C78.15375,226.97375 77.28625,238.6975 77.28625,240 C77.28625,241.3025 0,240 0,240" id="path3539" fill="#006C9B" fill-rule="nonzero"></path>
                                </g>
                                <g id="g3541" transform="translate(57.456750, 631.148750)">
                                    <path d="M2.5,0 C2.5,0 0.32875,3.69125 0.32875,5.645 C0.32875,7.59875 7.71,32.78125 11.18375,34.30125 C14.6575,35.82125 37.88625,31.26125 42.88,29.95875 C47.8725,28.65625 68.0625,23.88 69.14875,19.53875 C70.23375,15.19625 2.5,0 2.5,0" id="path3543" fill="#5C829A" fill-rule="nonzero"></path>
                                </g>
                                <g id="g3545" transform="translate(98.687625, 654.139500)">
                                    <path d="M27.5,0 C27.5,0 24.24375,11.685 20.33625,12.8975 C16.42875,14.11125 0.8275,7.52 0.8275,7.52 C0.8275,7.52 24.2225,1.45 27.5,0" id="path3547" fill="#FFE2C9" fill-rule="nonzero"></path>
                                </g>
                                <g id="g3549" transform="translate(92.762125, 582.254250)">
                                    <path d="M36.25,35 C36.25,35 26.67875,30.22375 21.03375,30.22375 C15.39,30.22375 11.61625,34.7025 7.70875,34.7025 C3.80125,34.7025 5.7575,41.2175 9.665,40.35 C13.5725,39.48125 20.8175,37.75625 23.4225,38.98375 C26.0275,40.21125 33.40875,62.78875 32.975,67.13 C32.54,71.4725 6.055,75.81375 2.1475,78.42 C-1.76125,81.025 2.58125,84.9325 2.58125,84.9325 C2.58125,84.9325 16.91,80.59 20.8175,80.15625 C24.725,79.7225 34.2775,79.7225 37.75125,75.38 C41.22375,71.03875 44.6975,48.895 44.6975,48.895 C44.6975,48.895 78.3475,21.54 82.36375,14.15875 C86.38,6.7775 72.05125,0.94125 72.05125,0.94125 C72.05125,0.94125 39.525,37.17 36.25,35" id="path3551" fill="#FFE2C9" fill-rule="nonzero"></path>
                                </g>
                                <g id="g3553" transform="translate(58.887500, 620.770125)">
                                    <path d="M38.75,38.75 C18.1975,43.5 12.35875,43.59375 11.05625,41.20625 C9.7525,38.81875 -0.6675,12.115 1.06875,10.37875 C2.80625,8.64125 49.44,0.42125 55.75625,0.19 C62.0725,-0.0425 68.15125,27.3125 67.7175,29.9175 C67.28375,32.5225 42.68875,37.84 38.75,38.75" id="path3555" fill="#FFFFFF" fill-rule="nonzero"></path>
                                </g>
                                <g id="g3557" transform="translate(66.640125, 626.890125)">
                                    <path d="M30,28.75 C14.06125,32.43375 9.5325,32.50625 8.5225,30.655 C7.5125,28.8025 -0.56875,8.09375 0.7775,6.7475 C2.125,5.4 32.01875,1.1975 36.9175,1.0175 C41.81625,0.83875 46.53125,22.0525 46.19375,24.0725 C45.8575,26.0925 33.055,28.04375 30,28.75" id="path3559" fill="#5C829A" fill-rule="nonzero"></path>
                                </g>
                                <g id="g3561" transform="translate(112.809375, 633.911625)">
                                    <path d="M7.5,3.75 C7.5,1.95125 6.0425,0.49375 4.24375,0.49375 C2.445,0.49375 0.9875,1.95125 0.9875,3.75 C0.9875,5.54875 2.445,7.00625 4.24375,7.00625 C6.0425,7.00625 7.5,5.54875 7.5,3.75" id="path3563" fill="#BEBEBE" fill-rule="nonzero"></path>
                                </g>
                                <g id="g3565" transform="translate(80.521000, 679.243375)">
                                    <path d="M3.75,13.75 C3.2625,15.3425 0.83625,14.7325 0.96,13.1325 C1.25,9.37625 0.58875,5.615 0.95125,1.88125 C1.105,0.285 3.60875,0.09 3.8225,1.7475 C4.3275,5.67375 4.9275,9.90125 3.75,13.75" id="path3567" fill="#FFFFFF" fill-rule="nonzero"></path>
                                </g>
                                <g id="g3569" transform="translate(62.590500, 677.155125)">
                                    <path d="M6.25,2.5 C5.34125,5.43125 4.72,8.4725 3.12625,11.13 C2.305,12.4975 0.18,11.3225 0.6975,9.8775 C1.74,6.97 2.30625,3.965 3.73625,1.20375 C4.5125,-0.295 6.70625,1.02875 6.25,2.5" id="path3571" fill="#FFFFFF" fill-rule="nonzero"></path>
                                </g>
                                <g id="g3573" transform="translate(45.159875, 667.407750)">
                                    <path d="M13.75,3.75 C10.5725,6.03375 6.5975,7.5 2.95625,8.87 C1.2275,9.52 0.18625,7.285 1.72375,6.31875 C5.02625,4.245 8.74375,2.245 12.4825,1.09625 C13.9225,0.65375 14.94375,2.8925 13.75,3.75" id="path3575" fill="#FFFFFF" fill-rule="nonzero"></path>
                                </g>
                                <g id="g3577" transform="translate(38.595375, 656.016875)">
                                    <path d="M12.5,3.75 C10.825,4.15875 9.04375,4.20625 7.335,4.4575 C5.465,4.73375 3.5875,4.965 1.69625,4.98875 C-0.0025,5.01125 0.0975,2.54125 1.565,2.16625 C4.83125,1.33125 8.99625,0.1725 12.36625,0.86875 C13.94625,1.195 14.17125,3.3425 12.5,3.75" id="path3579" fill="#FFFFFF" fill-rule="nonzero"></path>
                                </g>
                                <g id="g3581" transform="translate(156.609500, 564.030750)">
                                    <path d="M0,22.5 C0,22.5 6.175,38.80125 18.635,38.79 C18.635,38.79 30.455,20.505 33.17,14.58125 C33.17,14.58125 20.495,-0.87 13.76875,0.1175 C13.76875,0.1175 2.5575,16.8025 0,22.5" id="path3583" fill="#C39E05" fill-rule="nonzero"></path>
                                </g>
                                <g id="g3585" transform="translate(172.391750, 452.144625)">
                                    <path d="M15,126.25 C15,126.25 32.34,91.11375 39.5175,76.98625 C46.69625,62.8575 53.3175,21.8275 54.56625,8.3675 C55.81375,-5.0925 32.5875,2.82375 33.48,8.3675 C34.3725,13.91125 16.72,84.705 0.67125,113.65875 C0.67125,113.65875 8.0525,128.42125 15,126.25" id="path3587" fill="#E4BD00" fill-rule="nonzero"></path>
                                </g>
                                <g id="g3589" transform="translate(192.542625, 470.341000)">
                                    <path d="M3.75,22.5 C3.75,22.5 -0.1575,7.86375 0.49375,5.585 C1.145,3.305 18.70125,-0.9725 19.3675,1.00375 C20.0325,2.98 21.66,13.72625 22.9625,17.3075 C24.265,20.89 19.2225,32.34 15.8825,33.1275 C12.5425,33.915 3.75,22.5 3.75,22.5" id="path3591" fill="#FFE2C9" fill-rule="nonzero"></path>
                                </g>
                                <g id="g3593" transform="translate(58.901250, 299.701750)">
                                    <path d="M138.75,10 C138.75,10 137.88125,47.775 147.76,81.31625 C157.6375,114.8575 177.50125,153.7025 168.38375,169.28625 C168.38375,169.28625 160.89375,171.2875 151.45,169.28625 C142.00625,167.285 124.7475,168.05875 124.7475,168.05875 C124.7475,168.05875 107.81375,166.96 103.58,165.9825 C99.3475,165.00625 71.6675,142.8625 54.73375,139.93125 C37.80125,137.00125 24.775,147.54375 21.1925,153.995 C17.61125,160.4475 1.32875,159.74 0.6775,153.74375 C0.02625,147.7475 5.5625,131.13875 25.75125,120.71875 C45.94125,110.2975 78.83125,117.7875 78.83125,117.7875 C78.83125,117.7875 45.29,62.42875 51.4775,4.79 C51.4775,4.79 97.65125,-6.54875 138.75,10" id="path3595" fill="#FFC800" fill-rule="nonzero"></path>
                                </g>
                                <g id="g3597" transform="translate(177.188250, 463.783875)">
                                    <path d="M0,3.75 C0,3.75 2.605,12.8675 3.9075,13.51875 C5.21,14.17 33.8675,10.2625 42.33375,13.51875 C42.33375,13.51875 43.31,8.635 42.33375,4.7275 C42.33375,4.7275 32.23875,-4.065 0,3.75" id="path3599" fill="#C39E05" fill-rule="nonzero"></path>
                                </g>
                                <g id="g3601" transform="translate(52.684125, 474.339750)">
                                    <path d="M0,8.75 C0,8.75 4.54,37.08125 11.55125,51.08375 C11.55125,51.08375 8.4475,75.72375 11.55125,78.655 C14.65375,81.585 20.84125,80.06625 21.4925,79.08875 C21.4925,79.08875 23.44625,108.07125 25.72625,108.7225 C28.005,109.37375 32.89,107.745 31.9125,101.55875 C30.93625,95.37125 31.51625,78.76375 32.04,77.46125 C32.56375,76.15875 42.0075,104.48875 44.6125,105.14 C47.21875,105.79125 51.7775,102.86125 50.475,99.605 C49.1725,96.3475 41.6825,74.855 41.6825,71.59875 C41.6825,68.3425 42.985,64.435 44.2875,63.4575 C45.59,62.48125 51.45125,64.10875 52.1025,62.155 C52.75375,60.20125 50.14875,55.6425 41.35625,52.38625 C32.56375,49.13 26.09875,47.17625 26.09875,47.17625 C26.09875,47.17625 16.6075,20.47375 18.56125,6.47 C20.515,-7.5325 3.25625,8.42375 0,8.75" id="path3603" fill="#FFE2C9" fill-rule="nonzero"></path>
                                </g>
                                <g id="g3605" transform="translate(46.466250, 446.449875)">
                                    <path d="M22.5,3.75 C14.68125,1.48125 10.77625,0.1675 7.195,0.1675 C3.6125,0.1675 -0.295,33.0575 0.03125,37.9425 C0.35625,42.8275 22.17375,39.245 25.75625,37.9425 C29.33875,36.64 32.26875,15.79875 35.52625,10.2625 C35.52625,10.2625 30.3675,6.0325 22.5,3.75" id="path3607" fill="#C39E05" fill-rule="nonzero"></path>
                                </g>
                                <g id="g3609" transform="translate(181.486875, 501.403750)">
                                    <path d="M0,1.25 C0,1.25 0.6875,12.595 7.56375,15.69 C14.44,18.78375 18.565,15.69 18.565,15.69 C18.565,15.69 7.015,-0.4175 0,1.25" id="path3611" fill="#D89380" fill-rule="nonzero"></path>
                                </g>
                                <g id="g3613" transform="translate(171.147125, 490.195750)">
                                    <path d="M37.5,85 C37.5,85 20.31,59.215 17.56,54.40125 C14.80875,49.58875 12.74625,53.37 11.715,54.40125 C10.68375,55.4325 1.745,52.6825 4.495,48.90125 C7.245,45.11875 13.09,41.3375 13.09,41.3375 C13.09,41.3375 8.62125,34.1175 7.9325,32.39875 C7.9325,32.39875 24.77875,31.3675 29.93625,32.39875 C29.93625,32.39875 20.63875,13.49 3.9725,15.89625 C3.9725,15.89625 0.02625,5.5825 1.0575,3.8625 C2.08875,2.14375 24.09125,-1.6375 28.905,1.45625 C33.71875,4.55 40.59375,17.615 48.50125,29.99125 C56.40875,42.36875 65.3475,40.99375 63.285,54.0575 C61.2225,67.1225 47.47,93.25125 37.5,85" id="path3615" fill="#FFE2C9" fill-rule="nonzero"></path>
                                </g>
                                <g id="g3617" transform="translate(202.399125, 470.662750)">
                                    <path d="M20,92.5 C20,92.5 2.25125,91.8775 0.98375,106.1125 C-0.28375,120.3475 6.2475,134.44375 12.43625,134.7875 C18.625,135.13125 37.6725,125.84375 24.81375,115.87875 C24.81375,115.87875 42.3475,123.09875 51.63,120.00375 C60.9125,116.91 71.57,106.94 55.0675,101.095 C55.0675,101.095 86.6975,88.375 78.1025,69.12125 C78.1025,69.12125 91.51,64.30875 89.79125,58.12 C88.0725,51.93125 79.4775,58.12 79.4775,58.12 C79.4775,58.12 86.35375,43.68 80.8525,40.2425 C75.3525,36.80375 74.66375,40.2425 74.66375,40.2425 C74.66375,40.2425 76.7275,26.54 62.2875,19.81125 C47.8475,13.0825 42.00375,14.80125 42.00375,14.80125 C42.00375,14.80125 42.69125,0.0175 34.09625,0.705 C25.50125,1.3925 20.34375,15.145 20.34375,15.145 C20.34375,15.145 21.03125,9.9875 13.81125,10.675 C6.59125,11.3625 6.33375,26.90125 6.11875,31.50875 C5.90375,36.11625 16.21875,51.5875 16.21875,51.5875 C16.21875,51.5875 19.65625,67.7325 26.87625,67.73875 C26.87625,67.73875 4.8725,78.40375 20,92.5" id="path3619" fill="#A9660C" fill-rule="nonzero"></path>
                                </g>
                                <g id="g3621" transform="translate(205.272750, 504.652000)">
                                    <path d="M7.5,33.75 C10.93125,34.81125 19.87625,20.6925 16.43875,12.785 C13.00125,4.8775 4.75,-2.3425 1.655,1.44 C-1.43875,5.22125 2.3425,8.31625 5.78125,13.12875 C9.21875,17.9425 3.03,32.3675 7.5,33.75" id="path3623" fill="#FFE2C9" fill-rule="nonzero"></path>
                                </g>
                                <g id="g3625" transform="translate(202.032125, 547.568500)">
                                    <path d="M3.75,12.5 C3.75,12.5 11.08375,8.71875 10.0525,0.4675 C10.0525,0.4675 7.38875,10.1375 1.19125,10.09375 L3.75,12.5 Z" id="path3627" fill="#955508" fill-rule="nonzero"></path>
                                </g>
                                <g id="g3629" transform="translate(194.845750, 539.528875)">
                                    <path d="M5,3.75 C4.15375,1.84 2.4825,0.72875 1.2675,1.2675 C0.0525,1.805 -0.24625,3.79 0.59875,5.7 C1.445,7.60875 3.11625,8.72125 4.33125,8.1825 C5.54625,7.64375 5.84625,5.66 5,3.75" id="path3631" fill="#131416" fill-rule="nonzero"></path>
                                </g>
                                <g id="g3633" transform="translate(464.441500, 68.132500)">
                                    <path d="M16.25,203.75 C16.25,203.75 19.06,13.5225 19.85375,7.2075 C20.6475,0.89375 7.12625,-3.49125 4.74625,7.2075 C2.36625,17.9075 0.77875,203.75 0.77875,203.75 L16.25,203.75 Z" id="path3635" fill="#2A3549" fill-rule="nonzero"></path>
                                </g>
                                <g id="g3637" transform="translate(327.599500, 81.350875)">
                                    <path d="M2.5,115 C2.5,115 -0.6575,4.16375 2.5,0.80125 L15.97125,0.80125 L15.97125,115 C15.97125,120.485 2.625,119.61375 2.5,115" id="path3639" fill="#3C4D68" fill-rule="nonzero"></path>
                                </g>
                                <g id="g3641" transform="translate(411.474250, 80.758250)">
                                    <path d="M0,117.5 C0,117.5 1.41875,2.155 4.4675,1.37 C7.515,0.585 17.44125,1.37 17.44125,1.37 C17.44125,1.37 19.41125,104.40125 17.44125,114.11625 C15.47125,123.83 0,117.5 0,117.5" id="path3643" fill="#3C4D68" fill-rule="nonzero"></path>
                                </g>
                                <g id="g3645" transform="translate(325.033125, 193.124250)">
                                    <path d="M115,21.25 L110.01625,0.3175 L0.775,1.7675 L0.35,28.74 C0.35,28.74 87.07125,29.74875 115,21.25" id="path3647" fill="#3C4D68" fill-rule="nonzero"></path>
                                </g>
                                <g id="g3649" transform="translate(345.435375, 324.636500)">
                                    <path d="M10,18.75 C10,18.75 0.78375,4.52375 0.38,0.00625 C0.38,0.00625 8.81,12.8 10,18.75" id="path3651" fill="#FFFFFF" fill-rule="nonzero"></path>
                                </g>
                                <g id="g3653" transform="translate(394.292875, 49.383000)">
                                    <path d="M35,53.75 C35,53.75 25.46625,38.35 23.93125,33.83125 C22.395,29.3125 27.0825,17.33875 29.465,16.70875 C31.84875,16.07875 48.865,12.9275 50.125,9.77625 C51.38625,6.625 50.125,1.285 50.125,1.285 C50.125,1.285 29.5375,-0.9025 18.40375,1.285 C7.27,3.47375 -1.345,36.87625 0.44125,49.48 C0.44125,49.48 15.6725,60.825 18.40375,63.345 C21.135,65.86625 35,53.75 35,53.75" id="path3655" fill="#192E3A" fill-rule="nonzero"></path>
                                </g>
                                <g id="g3657" transform="translate(390.174625, 100.304625)">
                                    <path d="M41.25,145 C41.25,145 134.2825,156.11625 141.21625,151.075 C148.14875,146.0325 150.66875,135.31875 144.36625,126.49625 C138.065,117.6725 48.57125,8.35875 43.53,2.82875 C38.4875,-2.70125 20.0475,6.12125 17.2925,13.68375 C17.2925,13.68375 100.25,113.89125 103.40125,122.08375 C103.40125,122.08375 26.005,122.33875 17.2925,133.47 C8.58125,144.6 -4.3675,147.29375 2.565,151.075 C9.4975,154.85625 41.25,145 41.25,145" id="path3659" fill="#ED3B2E" fill-rule="nonzero"></path>
                                </g>
                                <g id="g3661" transform="translate(463.597375, 29.221625)">
                                    <path d="M32.5,37.5 C32.5,37.5 36.28125,22.375 39.4325,19.85375 C42.58375,17.3325 69.68375,23.635 72.205,19.85375 C74.725,16.0725 74.55375,2.8375 74.55375,2.8375 C74.55375,2.8375 24.9375,-2.835 18.005,2.8375 C18.005,2.8375 5.1525,-0.31375 0.865,3.4675 C0.865,3.4675 3.50875,36.835 7.29125,41.26375 C11.0725,45.6925 32.5,37.5 32.5,37.5" id="path3663" fill="#192E3A" fill-rule="nonzero"></path>
                                </g>
                                <g id="g3665" transform="translate(347.739500, 62.629375)">
                                    <path d="M45,188.75 C45,188.75 55.92375,174.885 64.9575,174.255 C73.99125,173.625 162.2225,175.515 169.78625,166.6925 C177.34875,157.86875 150.87875,19.3 154.03,0.6675 C154.03,0.6675 120.6275,-0.2375 116.21625,0.6675 C116.21625,0.6675 143.94625,132.02875 140.795,138.33125 C137.64375,144.63375 13.85375,150.9775 6.92125,157.91 C-0.01125,164.8425 -0.64125,177.4475 1.25,184.38 C3.14,191.3125 45,188.75 45,188.75" id="path3667" fill="#F84834" fill-rule="nonzero"></path>
                                </g>
                                <g id="g3669" transform="translate(350.290625, 430.500125)">
                                    <path d="M22.5,1.25 C22.5,1.25 10.99625,14.7375 9.0125,22.275 C7.02875,29.8125 7.02875,55.5975 7.02875,55.5975 C7.02875,55.5975 2.26875,55.58625 1.07875,57.97125 C-0.11125,60.3575 4.64875,65.80625 7.02875,64.8675 C7.02875,64.8675 1.8725,70.6125 5.045,74.60875 C8.21875,78.605 16.1525,69.48125 16.1525,69.48125 C16.1525,69.48125 34.7975,86.93625 65.74,80.1925 C65.74,80.1925 75.6575,94.00125 81.21125,81.74125 C81.21125,81.74125 93.50875,92.49 99.45875,77.8125 C105.40875,63.13375 95.61375,54.01 95.61375,54.01 C95.61375,54.01 102.995,24.915 92.89625,16.45375 C82.7975,7.99375 37.1775,-1.92375 22.5,1.25" id="path3671" fill="#4F4003" fill-rule="nonzero"></path>
                                </g>
                                <g id="g3673" transform="translate(382.708000, 388.518500)">
                                    <path d="M0,72.5 C0,72.5 9.9175,14.67 11.50375,11.8925 C13.09125,9.11625 31.735,-1.99125 46.41375,0.38875 C61.09125,2.76875 63.8675,7.92625 63.075,25.38 C62.28125,42.835 57.52125,90.835 56.33,92.81875 C56.33,92.81875 49.98375,88.99375 46.81,89.5175 C43.63625,90.04125 19.835,90.18375 17.0575,89.5175 C14.28125,88.85125 0,72.5 0,72.5" id="path3675" fill="#FFE2C9" fill-rule="nonzero"></path>
                                </g>
                                <g id="g3677" transform="translate(371.353625, 414.766625)">
                                    <path d="M22.5,15 C22.5,15 13.7725,26.90125 6.235,25.31375 C-1.30125,23.7275 -0.50875,10.63625 1.8725,6.2725 C4.2525,1.90875 22.10375,-8.405 22.5,15" id="path3679" fill="#FFE2C9" fill-rule="nonzero"></path>
                                </g>
                                <g id="g3681" transform="translate(425.094375, 420.226250)">
                                    <path d="M1.25,20 C1.25,20 1.05125,11.7225 2.44,11.92 C3.82875,12.11875 10.5725,12.295 11.7625,10.9175 C12.9525,9.54 12.75375,3.19375 11.7625,2.59875 C10.77125,2.0025 4.6025,0.8125 1.24,1.4075 C1.24,1.4075 10.5725,3.19375 10.77125,4.185 C10.96875,5.17625 10.96875,10.71375 9.9775,10.6225 C8.985,10.5325 2.61875,9.52375 1.24,10.6225 C-0.13875,11.7225 0.85375,18.55875 1.25,20" id="path3683" fill="#D2A580" fill-rule="nonzero"></path>
                                </g>
                                <g id="g3685" transform="translate(408.096500, 408.502125)">
                                    <path d="M0,5 C0,5 16.265,-0.95 28.76,3.61125 C28.76,3.61125 11.7025,-5.11625 0,5" id="path3687" fill="#7F4516" fill-rule="nonzero"></path>
                                </g>
                                <g id="g3689" transform="translate(406.335750, 434.612250)">
                                    <path d="M5,5 C5.225,2.895 4.37625,1.0775 3.1025,0.94125 C1.82875,0.805 0.61375,2.40125 0.38875,4.50625 C0.1625,6.61125 1.0125,8.42875 2.28625,8.565 C3.56,8.70125 4.775,7.105 5,5" id="path3691" fill="#131416" fill-rule="nonzero"></path>
                                </g>
                                <g id="g3693" transform="translate(432.640375, 438.432250)">
                                    <path d="M5,5 C5.225,2.895 4.37625,1.0775 3.1025,0.94125 C1.82875,0.805 0.61375,2.40125 0.38875,4.50625 C0.1625,6.61125 1.0125,8.42875 2.28625,8.565 C3.56,8.70125 4.775,7.105 5,5" id="path3695" fill="#131416" fill-rule="nonzero"></path>
                                </g>
                                <g id="g3697" transform="translate(397.658375, 456.779000)">
                                    <path d="M15,7.5 C15.70375,7.62375 4.63375,10.48625 0.52125,0.955 C0.52125,0.955 11.6275,6.905 15,7.5" id="path3699" fill="#4F4003" fill-rule="nonzero"></path>
                                </g>
                                <g id="g3701" transform="translate(425.491125, 462.055875)">
                                    <path d="M1.25,5 C0.655,5 8.675,9.4025 12.185,1.0325 C12.185,1.0325 8.1925,5 1.25,5" id="path3703" fill="#4F4003" fill-rule="nonzero"></path>
                                </g>
                                <g id="g3705" transform="translate(417.153375, 285.342500)">
                                    <path d="M15,55 C15,55 26.645,20.39125 32.00125,9.9125 C37.35625,-0.5675 18.71125,0.20375 18.71125,0.20375 C18.71125,0.20375 1.93875,37.515 0.90375,47.03625 C-0.13125,56.55625 10.495,68.03 15,55" id="path3707" fill="#FFE2C9" fill-rule="nonzero"></path>
                                </g>
                                <g id="g3709" transform="translate(365.431125, 362.124000)">
                                    <path d="M2.5,18.75 C5.7725,12.5025 20.35,-0.88625 29.57375,0.30375 C38.7975,1.49375 51.2825,7.37875 39.80875,23.51 C35.605,24.58375 31.10375,25.6025 26.6975,26.45125 C18.845,27.9625 10.20125,27.8975 2.34625,27.19875 C1.7425,26.63625 -0.3375,24.16625 2.5,18.75" id="path3711" fill="#506A91" fill-rule="nonzero"></path>
                                </g>
                                <g id="g3713" transform="translate(319.757625, 233.593125)">
                                    <path d="M105,145 C103.6075,146.67 95.375,149.51125 85.4825,152.04 C96.95625,135.91 84.47125,130.025 75.2475,128.835 C66.02375,127.645 51.44625,141.0325 48.17375,147.28125 C45.33625,152.69625 47.415,155.16625 48.02,155.72875 C34.05125,154.48625 22.58875,151.23375 22.58875,151.23375 C18.6225,148.3825 -0.6325,104.6025 1.06625,102.55375 C4.4375,98.4875 26.0575,91.05 26.0575,91.05 C26.0575,91.05 18.3225,66.1225 20.50375,51.94 C21.41125,46.04625 26.0575,1.2375 26.0575,1.2375 C49.86,21.46875 100.86375,12.79875 100.86375,12.79875 C100.86375,12.79875 90.6575,35.12875 89.33,43.45875 C88.00375,51.79 101.0325,101.36375 101.0325,101.36375 C101.0325,101.36375 116.1075,99.7775 116.1075,104.14 C116.1075,108.50375 106.98375,142.62 105,145" id="path3715" fill="#40567A" fill-rule="nonzero"></path>
                                </g>
                                <g id="g3717" transform="translate(372.520000, 368.547625)">
                                    <path d="M38.75,27.5 C38.75,27.5 31.35625,19.17 28.90375,14.0125 C28.90375,14.0125 37.95625,3.30125 24.86625,0.525 C11.775,-2.2525 -1.31625,15.3325 0.6675,20.0275 C0.6675,20.0275 11.775,20.75625 14.94875,22.3425 C18.1225,23.93 19.60875,40.5925 19.60875,40.5925 C19.60875,40.5925 32.8,46.9375 38.75,27.5" id="path3719" fill="#FFE2C9" fill-rule="nonzero"></path>
                                </g>
                                <g id="g3721" transform="translate(311.614250, 276.943750)">
                                    <path d="M31.25,48.75 C31.25,48.75 23.49,25.0875 24.68125,21.91375 C25.87125,18.74 71.49,15.17 78.63125,15.56625 C85.77125,15.96375 84.58125,4.0625 77.04375,2.47625 C69.5075,0.88875 7.6225,-0.6975 2.46625,3.66625 C-2.69125,8.03 9.37375,53.77125 10.96,57.73875 C18.66,54.11625 20.88625,53.265 31.25,48.75" id="path3723" fill="#FFE2C9" fill-rule="nonzero"></path>
                                </g>
                                <g id="g3725" transform="translate(405.338000, 293.857500)">
                                    <path d="M0,3.75 C0,3.75 6.43375,12.1825 8.96875,14.31375 C11.50375,16.44375 15.47125,16.6425 15.47125,16.6425 C15.47125,16.6425 20.23125,13.86625 21.025,11.485 C21.81875,9.105 25.19,1.89625 21.025,0.34375 C16.86,-1.20875 11.5325,6.92375 11.5325,6.92375 C11.5325,6.92375 7.61625,4.77875 6.38625,2.77625 C5.1575,0.775 0,3.75 0,3.75" id="path3727" fill="#FFE2C9" fill-rule="nonzero"></path>
                                </g>
                                <g id="g3729" transform="translate(388.388125, 285.084000)">
                                    <path d="M0,3.75 C0,3.75 19.27875,12.0325 24.46875,10.17 C29.65875,8.30875 35.775,7.36125 39.0475,7.09625 C42.32,6.83125 44.6025,3.285 45.2075,3.75 C45.81375,4.215 6.47375,-2.60375 0,3.75" id="path3731" fill="#FFE2C9" fill-rule="nonzero"></path>
                                </g>
                                <g id="g3733" transform="translate(390.245250, 287.510500)">
                                    <path d="M0,5 C1.1625,4.945 10.11625,7.18125 12.8925,8.76875 C15.67,10.355 22.1925,16.33375 24,15.71125 C25.8075,15.0875 27.3725,12.14 27.76875,7.18125 C28.165,2.22375 25.785,-0.7525 22.41375,0.4375 C19.04125,1.6275 19.63625,5.595 19.63625,5.595 C19.63625,5.595 7.93375,-0.4825 3.9675,0.17625 C0,0.835 0,5 0,5" id="path3735" fill="#FFE2C9" fill-rule="nonzero"></path>
                                </g>
                                <g id="g3737" transform="translate(375.309250, 276.530750)">
                                    <path d="M1.25,1.25 C1.25,1.25 0.85375,5.86375 1.25,7.2525 C1.64625,8.64125 5.8125,12.0125 5.8125,12.0125 C5.8125,12.0125 60.55625,14.195 68.6875,14.59125 C68.6875,14.59125 91.10125,80.83875 94.67125,84.41 C94.67125,84.41 170.83625,81.43375 185.1175,78.45875 L164.29125,11.10625 L164.29125,1.25 C164.29125,1.25 71.26625,-0.38875 64.5225,1.25 L1.25,1.25 Z" id="path3739" fill="#CFD7E2" fill-rule="nonzero"></path>
                                </g>
                                <g id="g3741" transform="translate(443.730750, 289.690125)">
                                    <path d="M26.25,71.25 C26.25,71.25 33.0925,70.94875 33.39,68.57 C33.6875,66.1925 10.77875,2.115 9.29125,1.12875 C7.80375,0.1425 0.26625,1.43125 0.26625,1.43125 C0.26625,1.43125 22.9775,67.3825 26.25,71.25" id="path3743" fill="#FFFFFF" fill-rule="nonzero"></path>
                                </g>
                                <g id="g3745" transform="translate(535.122750, 370.083375)">
                                    <path d="M5,2.5 C4.44875,4.86 4.0725,7.41875 2.74875,9.50125 C1.98625,10.7025 -0.15875,10 0.085,8.54 C0.505,6.01 1.1925,3.42375 2.42625,1.1725 C3.29125,-0.4075 5.34375,1.02875 5,2.5" id="path3747" fill="#FFFFFF" fill-rule="nonzero"></path>
                                </g>
                                <g id="g3749" transform="translate(554.057500, 370.667875)">
                                    <path d="M2.5,8.75 C1.8625,6.44625 1.495,4.045 1.1775,1.68 C0.93,-0.1725 3.665,-0.69 4.04,1.15625 C4.51625,3.49375 5.065,5.865 5.21875,8.2525 C5.3325,10.01875 2.98125,10.49 2.5,8.75" id="path3751" fill="#FFFFFF" fill-rule="nonzero"></path>
                                </g>
                                <g id="g3753" transform="translate(571.158875, 360.986000)">
                                    <path d="M7.5,7.5 C6.36125,6.995 5.43375,6.06375 4.42875,5.33625 C3.40625,4.595 2.32125,3.94 1.31125,3.1825 C-0.08375,2.13625 1.035,-0.0125 2.6925,0.505 C3.90125,0.8825 5.03125,1.57 6.06625,2.29125 C7.2525,3.1175 8.7175,4.1125 9.34875,5.45125 C9.87625,6.56875 8.73875,8.04875 7.5,7.5" id="path3755" fill="#FFFFFF" fill-rule="nonzero"></path>
                                </g>
                                <g id="g3757" transform="translate(575.109000, 341.931875)">
                                    <path d="M8.75,3.75 C7.1975,5.16625 4.36375,6.225 2.255,5.8625 C0.5425,5.56875 0.3625,3.20875 2.1125,2.7975 C2.98625,2.5925 3.85375,2.42375 4.7075,2.13875 C5.65125,1.8225 6.5625,1.40625 7.5475,1.2325 C8.98875,0.9775 9.80375,2.78875 8.75,3.75" id="path3759" fill="#FFFFFF" fill-rule="nonzero"></path>
                                </g>
                                <g id="g3761" transform="translate(581.466125, 36.632750)">
                                    <path d="M16.25,230 C16.25,230 19.06,14.88625 19.85375,7.74625 C20.6475,0.605 7.12625,-4.35375 4.74625,7.74625 C2.36625,19.845 0.77875,230 0.77875,230 L16.25,230 Z" id="path3763" fill="#2A3549" fill-rule="nonzero"></path>
                                </g>
                                <g id="g3765" transform="translate(283.931250, 253.409375)">
                                    <polygon id="path3767" fill="#2A3549" fill-rule="nonzero" points="0 21.25 82.545 26.02375 82.545 0.42375 0 0.42375"></polygon>
                                </g>
                                <g id="g3769" transform="translate(365.470375, 253.182625)">
                                    <polygon id="path3771" fill="#2A3549" fill-rule="nonzero" points="243.75 26.25 1.00625 26.25 1.00625 0.65 243.75 6.4025"></polygon>
                                </g>
                                <g id="g3773" transform="translate(272.732375, 44.783750)">
                                    <path d="M27.5,215 C27.5,215 13.8725,12.5925 13.8725,5.545 C13.8725,5.545 2.905,-4.96625 0.525,5.545 C-1.855,16.0575 11.665,215 11.665,215 L27.5,215 Z" id="path3775" fill="#2A3549" fill-rule="nonzero"></path>
                                </g>
                                <g id="g3777" transform="translate(352.726625, 30.082875)">
                                    <path d="M13.75,223.75 C13.75,223.75 -0.14625,10.5275 1.23125,5.76625 C2.61,1.00625 13.53625,-1.61875 15.55875,3.14125 C17.58,7.9025 29.98125,224.98875 29.98125,224.98875 L13.75,223.75 Z" id="path3779" fill="#2A3549" fill-rule="nonzero"></path>
                                </g>
                                <g id="g3781" transform="translate(689.265625, 361.632000)">
                                    <path d="M43.75,136.25 C43.75,136.25 37.9175,120.52375 27.7925,112.49125 C17.6675,104.4575 -30.53125,37.52875 34.32875,0.9275 C34.32875,0.9275 23.915,14.01125 30.75875,30.6725 C30.75875,30.6725 33.4,21.4125 41.4775,17.5825 C41.4775,17.5825 30.91875,44.95375 32.62375,66.6725 C34.32875,88.3925 50.755,118.37 52.39,132.56375 C54.02375,146.7575 46.0025,137.3975 43.75,136.25" id="path3783" fill="#864503" fill-rule="nonzero"></path>
                                </g>
                                <g id="g3785" transform="translate(730.515625, 487.913125)">
                                    <path d="M2.5,26.25 C2.5,26.25 -0.02125,12.68875 0.2475,8.82125 C0.51625,4.95375 4.38125,0.29625 9.12125,1.38375 C13.86125,2.47125 15.69,17.45 16.5825,21.02 C17.475,24.59 5.37625,29.1 2.5,26.25" id="path3787" fill="#FFC800" fill-rule="nonzero"></path>
                                </g>
                                <g id="g3789" transform="translate(844.856500, 49.107125)">
                                    <path d="M21.25,35 C21.25,35 32.55625,26.23125 36.72125,26.43375 C40.88625,26.63625 56.9525,43.2975 64.0925,40.3225 C71.23375,37.34625 76.58875,28.78125 75.39875,21.46125 C75.39875,21.46125 44.45625,5.215 32.55625,2.835 C20.655,0.45375 8.15875,-0.73625 5.77875,2.835 C3.39875,6.405 -1.27125,20.81625 2.25375,28.48625 C5.77875,36.15625 21.25,35 21.25,35" id="path3791" fill="#D2E4FF" fill-rule="nonzero"></path>
                                </g>
                                <g id="g3793" transform="translate(644.263625, 34.784875)">
                                    <path d="M35,55 C35,55 37.975,27.47125 42.735,24.69375 C42.735,24.69375 63.5625,20.98125 66.5375,14.90375 C69.5125,8.82625 66.5375,3.52125 66.5375,3.52125 C66.5375,3.52125 39.165,-2.97375 29.645,3.52125 C20.12375,10.01625 1.935,35.19875 0.91375,40.75625 C-0.1075,46.31375 15.96,62.27375 15.96,62.27375 L35,55 Z" id="path3795" fill="#D2E4FF" fill-rule="nonzero"></path>
                                </g>
                                <g id="g3797" transform="translate(657.133375, 74.648625)">
                                    <path d="M163.75,273.75 C163.75,273.75 189.93125,199.91625 197.0725,162.39 C204.2125,124.8625 209.56875,16.0375 211.94875,9.45875 C211.94875,9.45875 204.2125,-5.45125 187.84875,4.07 C187.84875,4.07 178.03125,100.64 171.485,124.0575 C164.94,147.475 131.14875,215.49625 125.79375,223.08625 C125.79375,223.08625 104.84125,151.64 95.915,129.02875 C86.99,106.41625 35.22125,16.0375 22.13,9.45875 C22.13,9.45875 7.25375,4.38625 0.70875,18.50875 C0.70875,18.50875 51.8825,101.65625 59.0225,127.24375 C66.16375,152.83 72.09375,254.06875 84.2625,275.25875 C96.4325,296.45 145.30375,287.5625 163.75,273.75" id="path3799" fill="#2F5F7C" fill-rule="nonzero"></path>
                                </g>
                                <g id="g3801" transform="translate(906.707750, 416.061625)">
                                    <path d="M1.25,13.75 C1.25,13.75 0.475,27.215 2.45875,34.355 C4.4425,41.495 10.86375,42.6575 16.4175,37.89625 C16.4175,37.89625 33.7,56.28375 37.6675,56.64625 C41.63375,57.01 43.30125,55 39.33375,50.605 C35.3675,46.21 26.24125,33.15125 26.24125,33.15125 C26.24125,33.15125 32.975,34.6125 34.95875,31.43875 C36.9425,28.265 34.96875,23.45 34.96875,23.45 C34.96875,23.45 40.5225,19.125 35.36625,13.75 C30.20875,8.375 16.325,0.22625 13.94375,1.1275 C11.56375,2.02875 1.25,13.75 1.25,13.75" id="path3803" fill="#FFE2C9" fill-rule="nonzero"></path>
                                </g>
                                <g id="g3805" transform="translate(793.028000, 385.420250)">
                                    <path d="M1.25,93.75 C1.25,93.75 10.36,91.0825 16.43,81.5625 C22.5,72.04125 39.75625,31.87625 63.5575,28.30625 C87.36,24.73625 108.48375,45.86 113.54125,46.7525 C118.59875,47.645 132.5825,35.5275 131.095,27.9 C129.6075,20.27375 84.38375,-0.85125 62.665,0.33875 C40.94625,1.52875 23.9875,23.54625 19.8225,28.60375 C15.6575,33.66125 -0.66125,79.16125 1.25,93.75" id="path3807" fill="#FF6955" fill-rule="nonzero"></path>
                                </g>
                                <g id="g3809" transform="translate(654.321375, 339.482750)">
                                    <path d="M62.5,67.5 C62.5,67.5 43.75375,18.70625 12.03375,0.45875 C12.03375,0.45875 2.61875,1.2525 0.3925,4.425 C0.3925,4.425 33.075,18.8825 49.33875,55.08125 C65.60375,91.27875 62.5,67.5 62.5,67.5" id="path3811" fill="#EDB415" fill-rule="nonzero"></path>
                                </g>
                                <g id="g3813" transform="translate(644.977125, 335.471750)">
                                    <path d="M130,145 C130,145 146.8925,148.10625 149.6525,140.96625 C152.4125,133.825 157.19,113.78875 161.0575,109.92125 C164.925,106.05375 178.88125,86.91625 167.57625,72.93375 C167.57625,72.93375 178.2825,42.64 179.77375,8.3375 C179.77375,8.3375 131.20125,-10.175 90.35875,10.1225 C90.35875,10.1225 105.73625,49.04 106.88125,56.83375 C108.98125,71.11375 94.66,101.46125 94.66,101.46125 C94.66,101.46125 71.665,60.8175 54.815,49.395 C37.965,37.9725 6.0225,33.92375 0.96375,55.94125 C-4.09375,77.9575 17.625,72.28375 17.625,72.28375 C17.625,72.28375 38.15375,69.30875 47.9725,76.47 C57.79,83.63 77.725,132.10625 84.5675,138.35375 C91.41,144.60125 121.55625,144.775 130,145" id="path3815" fill="#FF6955" fill-rule="nonzero"></path>
                                </g>
                                <g id="g3817" transform="translate(617.943375, 273.174875)">
                                    <path d="M33.75,68.75 C33.75,68.75 5.98125,45.345 1.22125,38.205 C-3.53875,31.06375 40.0975,-0.67125 46.44375,0.1225 C52.79125,0.915 85.765,34.06625 85.1575,38.205 C84.55125,42.3425 41.83375,70.15 33.75,68.75" id="path3819" fill="#EDB415" fill-rule="nonzero"></path>
                                </g>
                                <g id="g3821" transform="translate(699.637250, 310.247750)">
                                    <path d="M40,167.5 C40,167.5 50.43625,145.13125 47.46125,117.165 C44.48625,89.1975 17.70875,23.43875 0.4525,7.8225 L5.21375,1.13125 C5.21375,1.13125 78.87875,107.1575 44.72375,167.5 L40,167.5 Z" id="path3823" fill="#EDB415" fill-rule="nonzero"></path>
                                </g>
                                <g id="g3825" transform="translate(634.649250, 304.178125)">
                                    <path d="M71.25,8.75 C71.25,8.75 61.4225,16.325 50.1425,24.25875 C38.8625,32.1925 23.39125,43.6975 18.23375,42.5075 C13.0775,41.3175 1.14625,29.86 1.16125,25.67125 C1.17625,21.4825 21.01125,0.85375 28.54875,0.06125 C28.54875,0.06125 47.73125,5.6525 59.49,7.20125 C71.25,8.75 68.72625,4.88875 71.25,8.75" id="path3827" fill="#FFD261" fill-rule="nonzero"></path>
                                </g>
                                <g id="g3829" transform="translate(760.359250, 469.394250)">
                                    <path d="M16.25,17.5 C16.25,17.5 18.2875,9.19125 20.96,8.89375 C20.96,8.89375 23.735,2.94375 18.605,0.86125 C13.475,-1.22125 0.64875,7.635 1.06875,9.18 C1.48875,10.72625 2.70625,15.8925 2.01125,19.0875 C1.3175,22.2825 11.84375,23.13 16.25,17.5" id="path3831" fill="#FFE2C9" fill-rule="nonzero"></path>
                                </g>
                                <g id="g3833" transform="translate(714.474375, 503.765625)">
                                    <path d="M47.5,91.25 C59.40125,96.80375 82.90125,83.31625 87.415,71.8125 C91.93,60.3075 94.27375,43.08 86.3575,35.0325 C78.4425,26.985 28.6225,1.01875 28.6225,1.01875 C28.6225,1.01875 8.32625,15.07375 4.36,24.605 C0.3925,34.1375 -1.69,54.75375 7.43375,71.01875 C16.5575,87.2825 34.40875,94.02625 47.5,91.25" id="path3835" fill="#864503" fill-rule="nonzero"></path>
                                </g>
                                <g id="g3837" transform="translate(732.160250, 486.102500)">
                                    <path d="M67.5,62.5 C67.5,62.5 72.51625,28.6275 67.5,16.48375 C59.9625,-1.765 36.87875,-0.17875 26.6975,3.3975 C9.88,9.3025 2.4425,38.69875 0.855,47.425 C0.855,47.425 28.62375,58.93 31.40125,92.64875 C31.40125,92.64875 54.40875,60.91375 67.5,62.5" id="path3839" fill="#FFE2C9" fill-rule="nonzero"></path>
                                </g>
                                <g id="g3841" transform="translate(773.815250, 527.869000)">
                                    <path d="M1.25,18.75 C1.25,18.75 0.45625,8.43625 3.63,6.4525 C6.80375,4.46875 12.36875,10.38625 14.1425,7.84125 C15.91625,5.295 15.72875,2.08875 11.7625,0.5025 C11.7625,0.5025 20.86,2.49375 15.215,9.62625 C11.7625,13.99 6.4075,6.25375 5.01875,8.03875 C3.63,9.82375 1.25,16.17125 1.25,18.75" id="path3843" fill="#D2A580" fill-rule="nonzero"></path>
                                </g>
                                <g id="g3845" transform="translate(755.742625, 495.382000)">
                                    <path d="M26.25,2.5 C24.6475,1.15625 22.87125,0.26 20.91,0.06375 C12.68625,-0.75875 4.46625,11.10625 0.56125,18.78125 C7.245,18.6025 21.70125,16.54375 26.25,2.5" id="path3847" fill="#E4AC99" fill-rule="nonzero"></path>
                                </g>
                                <g id="g3849" transform="translate(752.790500, 496.687125)">
                                    <path d="M1.25,23.75 C2.44,24.54375 40.92,26.52625 40.92,26.52625 C40.92,26.52625 37.31875,8.00125 29.2025,1.195 C24.65375,15.23875 10.1975,17.2975 3.51375,17.47625 C1.7675,20.90875 0.8825,23.505 1.25,23.75" id="path3851" fill="#7A4316" fill-rule="nonzero"></path>
                                </g>
                                <g id="g3853" transform="translate(749.889625, 534.935125)">
                                    <path d="M16.25,3.75 C16.25,3.75 12.48125,9.7 7.72125,8.70875 C2.96125,7.7175 0.18375,3.94875 0.77875,0.775 C0.77875,0.775 6.13375,10.295 16.25,3.75" id="path3855" fill="#131416" fill-rule="nonzero"></path>
                                </g>
                                <g id="g3857" transform="translate(780.879250, 538.529250)">
                                    <path d="M13.75,3.75 C13.75,3.75 10.52375,8.84375 6.45,7.99375 C2.375,7.145 -0.00125,3.92 0.5075,1.20375 C0.5075,1.20375 5.09125,9.3525 13.75,3.75" id="path3859" fill="#131416" fill-rule="nonzero"></path>
                                </g>
                                <g id="g3861" transform="translate(746.121125, 550.563250)">
                                    <path d="M16.25,8.75 C16.25,8.75 3.20125,5.1175 0.9775,1.2125 C0.9775,1.2125 1.02375,12.39375 16.25,8.75" id="path3863" fill="#442405" fill-rule="nonzero"></path>
                                </g>
                                <g id="g3865" transform="translate(779.230500, 553.335000)">
                                    <path d="M0,6.25 C0,6.25 8.74375,12.89375 14.47875,0.82125 C14.47875,0.82125 7.24,6.7075 0,6.25" id="path3867" fill="#442405" fill-rule="nonzero"></path>
                                </g>
                                <g id="g3869" transform="translate(721.822375, 515.624875)">
                                    <path d="M12.5,17.5 C12.5,17.5 4.96375,24.14875 1.4175,19.93875 C-2.12875,15.7275 1.86125,4.645 6.95875,2.87125 C12.05625,1.09875 15.18875,-1.1175 17.39125,2.87125 C19.5925,6.86125 12.5,17.5 12.5,17.5" id="path3871" fill="#FFE2C9" fill-rule="nonzero"></path>
                                </g>
                                <g id="g3873" transform="translate(799.109125, 523.175750)">
                                    <path d="M1.25,20 C1.25,20 3.91,25.65 4.9575,20.58 C6.00625,15.50875 7.1425,2.13625 2.70625,1.23625 C-1.73,0.33625 1.25,20 1.25,20" id="path3875" fill="#FFE2C9" fill-rule="nonzero"></path>
                                </g>
                                <g id="g3877" transform="translate(725.557000, 519.104500)">
                                    <path d="M2.5,11.25 C4.54125,14.3125 12.0875,7.68 10.715,4.11 C9.3425,0.53875 4.77625,-0.59 2.5,2.92 C-0.475,7.50625 1.31,9.465 2.5,11.25" id="path3879" fill="#4E5F83" fill-rule="nonzero"></path>
                                </g>
                                <g id="g3881" transform="translate(800.924250, 529.732625)">
                                    <path d="M3.75,10 C3.75,10 6.57125,11.035 6.86875,5.9775 C7.16625,0.92 1.27625,0.02625 1.27625,0.02625 C1.27625,0.02625 -1.45125,7.4775 3.75,10" id="path3883" fill="#4E5F83" fill-rule="nonzero"></path>
                                </g>
                                <g id="g3885" transform="translate(678.263125, 349.187125)">
                                    <path d="M52.5,171.25 C52.5,171.25 58.0425,133.86125 95.57125,118.985 C95.57125,118.985 95.6125,75.25 87.87625,49.06875 C80.14125,22.88625 62.885,2.655 40.57125,6.225 C18.25625,9.795 5.16625,30.325 5.16625,30.325 L5.16625,38.06 L1,38.06 L1,30.6225 C1,30.6225 12.30625,5.035 39.97625,1.1675 C67.645,-2.7 84.00875,19.01875 93.2325,47.87875 C102.455,76.7375 100.9675,118.39 100.9675,118.39 C100.9675,118.39 141.215,138.3025 128.82625,183.53625 C128.82625,183.53625 125.7925,186.04375 126.62,181.5225 C127.44625,177.0025 134.885,141.895 99.48,122.55625 C99.48,122.55625 68.19875,131.2825 55.575,171.25 C55.575,171.25 52.82625,177.69625 52.5,171.25" id="path3887" fill="#4E5F83" fill-rule="nonzero"></path>
                                </g>
                                <g id="g3889" transform="translate(666.228500, 384.924875)">
                                    <path d="M11.25,5 C12.92,9.14875 8.07625,49.82625 6.49,56.7375 C5.50125,61.04375 2.3575,62.85625 0.1275,63.61125 C3.15375,64.005 5.40125,64.2225 6.0925,64.1075 C8.47375,63.71125 11.25,62.45875 13.035,56.7375 C14.82,51.01625 21.36625,4.00875 17.2,2.3225 C15.655,1.69625 11.07625,0.96625 5.70375,0.38875 C7.80625,1.25625 10.335,2.72625 11.25,5" id="path3891" fill="#647FAD" fill-rule="nonzero"></path>
                                </g>
                                <g id="g3893" transform="translate(638.761125, 383.418625)">
                                    <path d="M2.5,61.25 C8.125,62.125 20.2,64.15375 27.595,65.1175 C29.825,64.3625 32.96875,62.55 33.9575,58.24375 C35.54375,51.3325 40.3875,10.655 38.7175,6.50625 C37.8025,4.2325 35.27375,2.7625 33.17125,1.895 C24.06625,0.91375 12.67625,0.36875 9.865,1.5075 C5.39625,3.3175 -2.9,60.41 2.5,61.25" id="path3895" fill="#4E5F83" fill-rule="nonzero"></path>
                                </g>
                                <g id="g3897" transform="translate(642.168750, 435.126875)">
                                    <path d="M1.25,3.75 C1.39875,2.03125 2.91375,0.75875 4.6325,0.9075 L9.67125,1.345 C11.39,1.49375 12.6625,3.00875 12.51375,4.7275 C12.36375,6.44625 10.85,7.71875 9.13125,7.57 L4.0925,7.1325 C2.37375,6.98375 1.10125,5.46875 1.25,3.75" id="path3899" fill="#FFFFFF" fill-rule="nonzero"></path>
                                </g>
                                <g id="g3901" transform="translate(672.365875, 456.387375)">
                                    <path d="M5,11.25 C4.90125,12.70625 2.6375,13.235 2.0825,11.78375 C0.93,8.7725 0.24875,5.0375 0.26875,1.81375 C0.28,-0.07625 2.83875,0.16 3.31375,1.67125 C4.23375,4.60125 5.20875,8.1625 5,11.25" id="path3903" fill="#FFFFFF" fill-rule="nonzero"></path>
                                </g>
                                <g id="g3905" transform="translate(652.613500, 458.830125)">
                                    <path d="M3.75,10 C3.19375,11.63875 0.935,10.95625 0.94125,9.37875 C0.95125,6.76625 1.5575,3.86625 2.68,1.5075 C3.34,0.1225 5.8225,0.38625 5.5075,2.13375 C5.04,4.73125 4.6,7.49875 3.75,10" id="path3907" fill="#FFFFFF" fill-rule="nonzero"></path>
                                </g>
                                <g id="g3909" transform="translate(636.209375, 453.337375)">
                                    <path d="M7.5,2.5 C6.11875,4.55125 4.87625,6.82375 3.305,8.73 C2.3225,9.92375 0.11375,9.02375 0.77375,7.425 C1.81,4.9175 3.5075,2.53875 5.3325,0.55 C6.49125,-0.7125 8.4025,1.16 7.5,2.5" id="path3911" fill="#FFFFFF" fill-rule="nonzero"></path>
                                </g>
                                <g id="g3913" transform="translate(621.829750, 440.744750)">
                                    <path d="M8.75,3.75 C7.07625,4.93625 5.375,6.21 3.41,6.86625 C2.75625,7.085 2.0925,7.0525 1.60875,6.49125 C1.105,5.90625 1.105,4.8475 1.77,4.36375 C3.4275,3.155 5.13625,1.895 7.08875,1.21375 C7.7475,0.985 8.4275,1.03125 8.9125,1.595 C9.4175,2.18 9.43,3.26875 8.75,3.75" id="path3915" fill="#FFFFFF" fill-rule="nonzero"></path>
                                </g>
                                <g id="g3917" transform="translate(635.745375, 389.433000)">
                                    <path d="M3.75,47.5 C3.75,47.5 3.055,40.0625 6.32875,38.575 C9.60125,37.08625 10.19625,35.30125 17.33625,36.78875 C24.4775,38.27625 32.51,35.89625 33.4025,33.51625 C34.295,31.13625 29.2375,26.98625 24.18,26.97875 C19.12125,26.97125 12.57625,26.07875 12.57625,23.99625 C12.57625,21.91375 17.48375,21.31875 22.91375,22.21125 C28.345,23.10375 36.08,23.29375 37.5675,19.1825 C39.055,15.07 33.9975,13.285 29.2375,12.69 C24.4775,12.095 17.03875,11.7975 16.14625,10.6075 C15.25375,9.4175 20.90625,7.6325 24.4775,8.2275 C28.0475,8.8225 34.5925,8.2275 34.89,5.2525 C35.1875,2.2775 25.0725,0.78875 19.12125,0.78875 C13.17125,0.78875 8.70875,2.8725 6.32875,5.2525 C3.9475,7.6325 -0.2175,25.18625 0.08,33.21875 C0.3775,41.2525 3.75,47.5 3.75,47.5" id="path3919" fill="#FFE2C9" fill-rule="nonzero"></path>
                                </g>
                            </g>
                        </g>
                    </g>
                </g>
            </g>
        </g>
    </g>
</svg>